<svg xmlns="http://www.w3.org/2000/svg" viewBox="0 0 600 160" width="600" height="160">
  <defs>
    <linearGradient id="grad1" x1="0%" y1="0%" x2="100%" y2="100%">
      <stop offset="0%" style="stop-color:#8B5CF6"/>
      <stop offset="100%" style="stop-color:#6366F1"/>
    </linearGradient>
    <linearGradient id="grad2" x1="0%" y1="0%" x2="100%" y2="100%">
      <stop offset="0%" style="stop-color:#A78BFA"/>
      <stop offset="100%" style="stop-color:#7C3AED"/>
    </linearGradient>
  </defs>
  
  <!-- Claw Icon - three stylized slash marks -->
  <g transform="translate(30, 25)">
    <path d="M 15 10 Q 18 50 30 90 Q 32 96 28 100 Q 24 96 22 90 Q 12 50 12 10 Q 13 5 15 10Z" fill="url(#grad2)" opacity="0.7"/>
    <path d="M 40 0 Q 45 45 52 85 Q 54 95 50 100 Q 46 95 44 85 Q 38 45 36 0 Q 38 -4 40 0Z" fill="url(#grad2)" opacity="0.85"/>
    <path d="M 65 10 Q 70 50 76 90 Q 78 96 74 100 Q 70 96 68 90 Q 64 50 62 10 Q 63 5 65 10Z" fill="url(#grad2)"/>
  </g>
  
  <!-- ClawAI Text -->
  <text x="140" y="108" font-family="'Inter', 'Segoe UI', 'Helvetica Neue', Arial, sans-serif" font-size="72" font-weight="700" letter-spacing="2">
    <tspan fill="#FFFFFF">Claw</tspan><tspan fill="url(#grad1)">AI</tspan>
  </text>
</svg>